<mxfile host="app.diagrams.net" modified="2024-04-14T08:51:37.166Z" agent="Mozilla/5.0 (Windows NT 10.0; Win64; x64) AppleWebKit/537.36 (KHTML, like Gecko) Chrome/123.0.0.0 Safari/537.36" etag="Tcw-b7hppmN9W0gGypg3" version="24.2.5" type="github">
  <diagram name="Page-1" id="e56a1550-8fbb-45ad-956c-1786394a9013">
    <mxGraphModel dx="934" dy="541" grid="1" gridSize="10" guides="1" tooltips="1" connect="1" arrows="1" fold="1" page="1" pageScale="1" pageWidth="1100" pageHeight="850" background="#FFFFFF" math="0" shadow="0">
      <root>
        <mxCell id="0" />
        <mxCell id="1" parent="0" />
        <mxCell id="mDnNRbJlArddQkRWeZSY-25" style="edgeStyle=orthogonalEdgeStyle;rounded=0;orthogonalLoop=1;jettySize=auto;html=1;exitX=0.25;exitY=0;exitDx=0;exitDy=0;" edge="1" parent="1" source="mDnNRbJlArddQkRWeZSY-24" target="mDnNRbJlArddQkRWeZSY-23">
          <mxGeometry relative="1" as="geometry" />
        </mxCell>
        <mxCell id="mDnNRbJlArddQkRWeZSY-11" value="&lt;b&gt;&lt;font style=&quot;font-size: 17px;&quot;&gt;ARTIST&lt;/font&gt;&lt;/b&gt;" style="swimlane;childLayout=stackLayout;horizontal=1;startSize=50;horizontalStack=0;rounded=1;fontSize=14;fontStyle=0;strokeWidth=3;resizeParent=0;resizeLast=1;shadow=0;dashed=0;align=center;arcSize=4;whiteSpace=wrap;html=1;" vertex="1" parent="1">
          <mxGeometry x="120" y="40" width="120" height="150" as="geometry" />
        </mxCell>
        <mxCell id="mDnNRbJlArddQkRWeZSY-12" value="&lt;u style=&quot;font-size: 14px;&quot;&gt;&lt;font style=&quot;font-size: 14px;&quot;&gt;ARTISTID&lt;/font&gt;&lt;/u&gt;&lt;div style=&quot;font-size: 14px;&quot;&gt;&lt;font style=&quot;font-size: 14px;&quot;&gt;STYLE&lt;/font&gt;&lt;/div&gt;&lt;div style=&quot;font-size: 14px;&quot;&gt;&lt;font style=&quot;font-size: 14px;&quot;&gt;BIRTHPLACE&lt;/font&gt;&lt;/div&gt;&lt;div style=&quot;font-size: 14px;&quot;&gt;&lt;font style=&quot;font-size: 14px;&quot;&gt;FNAME&lt;/font&gt;&lt;/div&gt;&lt;div style=&quot;font-size: 14px;&quot;&gt;&lt;font style=&quot;font-size: 14px;&quot;&gt;LNAME&lt;/font&gt;&lt;/div&gt;" style="align=left;strokeColor=none;fillColor=none;spacingLeft=4;fontSize=12;verticalAlign=top;resizable=0;rotatable=0;part=1;html=1;" vertex="1" parent="mDnNRbJlArddQkRWeZSY-11">
          <mxGeometry y="50" width="120" height="100" as="geometry" />
        </mxCell>
        <mxCell id="mDnNRbJlArddQkRWeZSY-23" value="&lt;b&gt;&lt;font style=&quot;font-size: 17px;&quot;&gt;EXHIBITION&lt;/font&gt;&lt;/b&gt;" style="swimlane;childLayout=stackLayout;horizontal=1;startSize=50;horizontalStack=0;rounded=1;fontSize=14;fontStyle=0;strokeWidth=3;resizeParent=0;resizeLast=1;shadow=0;dashed=0;align=center;arcSize=4;whiteSpace=wrap;html=1;" vertex="1" parent="1">
          <mxGeometry x="630" y="50" width="120" height="120" as="geometry" />
        </mxCell>
        <mxCell id="mDnNRbJlArddQkRWeZSY-24" value="&lt;span style=&quot;font-size: 14px;&quot;&gt;&lt;u style=&quot;&quot;&gt;&lt;font style=&quot;font-size: 14px;&quot;&gt;EID&lt;/font&gt;&lt;/u&gt;&lt;/span&gt;&lt;div style=&quot;font-size: 14px;&quot;&gt;&lt;font style=&quot;font-size: 14px;&quot;&gt;ENDATE&lt;/font&gt;&lt;/div&gt;&lt;div style=&quot;font-size: 14px;&quot;&gt;&lt;font style=&quot;font-size: 14px;&quot;&gt;STARTDATE&lt;/font&gt;&lt;/div&gt;" style="align=left;strokeColor=none;fillColor=none;spacingLeft=4;fontSize=12;verticalAlign=top;resizable=0;rotatable=0;part=1;html=1;" vertex="1" parent="mDnNRbJlArddQkRWeZSY-23">
          <mxGeometry y="50" width="120" height="70" as="geometry" />
        </mxCell>
        <mxCell id="mDnNRbJlArddQkRWeZSY-28" style="edgeStyle=orthogonalEdgeStyle;rounded=0;orthogonalLoop=1;jettySize=auto;html=1;strokeWidth=2;" edge="1" parent="1" source="mDnNRbJlArddQkRWeZSY-12">
          <mxGeometry relative="1" as="geometry">
            <mxPoint x="620" y="140" as="targetPoint" />
          </mxGeometry>
        </mxCell>
        <mxCell id="mDnNRbJlArddQkRWeZSY-29" value="&lt;b&gt;EXHIBITS&lt;/b&gt;" style="shape=rhombus;perimeter=rhombusPerimeter;whiteSpace=wrap;html=1;align=center;strokeWidth=2;" vertex="1" parent="1">
          <mxGeometry x="370" y="110" width="120" height="60" as="geometry" />
        </mxCell>
        <mxCell id="mDnNRbJlArddQkRWeZSY-33" value="" style="shape=link;endArrow=classic;startArrow=classic;html=1;rounded=0;exitX=1;exitY=1;exitDx=0;exitDy=0;endWidth=0.47619047619047616;startWidth=0.47619047619047616;strokeWidth=2;targetPerimeterSpacing=0;sourcePerimeterSpacing=0;" edge="1" parent="1">
          <mxGeometry width="100" height="100" relative="1" as="geometry">
            <mxPoint x="180" y="190" as="sourcePoint" />
            <mxPoint x="180" y="280" as="targetPoint" />
            <Array as="points" />
          </mxGeometry>
        </mxCell>
        <mxCell id="mDnNRbJlArddQkRWeZSY-35" value="&lt;b&gt;&lt;font style=&quot;font-size: 15px;&quot;&gt;HAS&lt;/font&gt;&lt;/b&gt;" style="shape=rhombus;perimeter=rhombusPerimeter;whiteSpace=wrap;html=1;align=center;rotation=0;strokeWidth=2;" vertex="1" parent="1">
          <mxGeometry x="140" y="280" width="80" height="49.65" as="geometry" />
        </mxCell>
        <mxCell id="mDnNRbJlArddQkRWeZSY-41" style="edgeStyle=orthogonalEdgeStyle;rounded=0;orthogonalLoop=1;jettySize=auto;html=1;strokeWidth=2;" edge="1" parent="1" source="mDnNRbJlArddQkRWeZSY-24">
          <mxGeometry relative="1" as="geometry">
            <mxPoint x="689.9999999999998" y="290" as="targetPoint" />
          </mxGeometry>
        </mxCell>
        <mxCell id="mDnNRbJlArddQkRWeZSY-42" value="&lt;b&gt;CONDUCTS&lt;/b&gt;" style="shape=rhombus;perimeter=rhombusPerimeter;whiteSpace=wrap;html=1;align=center;strokeWidth=2;" vertex="1" parent="1">
          <mxGeometry x="647.5" y="269.65" width="85" height="50.35" as="geometry" />
        </mxCell>
        <mxCell id="mDnNRbJlArddQkRWeZSY-43" value="&lt;b&gt;&lt;font style=&quot;font-size: 17px;&quot;&gt;GALLERY&lt;/font&gt;&lt;/b&gt;" style="swimlane;childLayout=stackLayout;horizontal=1;startSize=50;horizontalStack=0;rounded=1;fontSize=14;fontStyle=0;strokeWidth=3;resizeParent=0;resizeLast=1;shadow=0;dashed=0;align=center;arcSize=4;whiteSpace=wrap;html=1;" vertex="1" parent="1">
          <mxGeometry x="360" y="380" width="160" height="140" as="geometry" />
        </mxCell>
        <mxCell id="mDnNRbJlArddQkRWeZSY-44" value="&lt;font style=&quot;font-size: 14px;&quot;&gt;GID&lt;/font&gt;&lt;div&gt;&lt;font style=&quot;font-size: 14px;&quot;&gt;LOCATION&lt;/font&gt;&lt;/div&gt;" style="align=left;strokeColor=none;fillColor=none;spacingLeft=4;fontSize=12;verticalAlign=top;resizable=0;rotatable=0;part=1;html=1;" vertex="1" parent="mDnNRbJlArddQkRWeZSY-43">
          <mxGeometry y="50" width="160" height="90" as="geometry" />
        </mxCell>
      </root>
    </mxGraphModel>
  </diagram>
</mxfile>
